<svg width="1200" height="760" viewBox="0 0 1200 760" fill="none" xmlns="http://www.w3.org/2000/svg">
  <rect width="1200" height="760" rx="34" fill="#F8FAFC"/>
  <rect x="44" y="44" width="1112" height="672" rx="28" fill="white" stroke="#E2E8F0"/>
  <rect x="76" y="76" width="1048" height="218" rx="24" fill="#082F49"/>
  <text x="108" y="120" fill="#A5F3FC" font-family="Inter, Arial, sans-serif" font-size="16" font-weight="700" letter-spacing="3">SECTOR RADAR</text>
  <text x="108" y="172" fill="white" font-family="Inter, Arial, sans-serif" font-size="34" font-weight="760">Technology / 科技 (XLK)</text>
  <text x="108" y="210" fill="#CBD5E1" font-family="Inter, Arial, sans-serif" font-size="20">What moved, who drove it, and what remains uncertain.</text>

  <rect x="108" y="232" width="286" height="38" rx="19" fill="white" fill-opacity=".1"/>
  <text x="130" y="257" fill="#CFFAFE" font-family="Inter, Arial, sans-serif" font-size="16">Sector mode</text>

  <rect x="76" y="326" width="320" height="168" rx="22" fill="#ECFEFF" stroke="#A5F3FC"/>
  <text x="104" y="364" fill="#0F172A" font-family="Inter, Arial, sans-serif" font-size="20" font-weight="700">Move</text>
  <text x="104" y="402" fill="#475569" font-family="Inter, Arial, sans-serif" font-size="18">AI-linked demand and</text>
  <text x="104" y="432" fill="#475569" font-family="Inter, Arial, sans-serif" font-size="18">semiconductor strength</text>

  <rect x="440" y="326" width="320" height="168" rx="22" fill="#EFF6FF" stroke="#BFDBFE"/>
  <text x="468" y="364" fill="#0F172A" font-family="Inter, Arial, sans-serif" font-size="20" font-weight="700">Drivers</text>
  <text x="468" y="402" fill="#475569" font-family="Inter, Arial, sans-serif" font-size="18">NVIDIA · Microsoft</text>
  <text x="468" y="432" fill="#475569" font-family="Inter, Arial, sans-serif" font-size="18">Apple · Broadcom</text>

  <rect x="804" y="326" width="320" height="168" rx="22" fill="#F8FAFC" stroke="#CBD5E1"/>
  <text x="832" y="364" fill="#0F172A" font-family="Inter, Arial, sans-serif" font-size="20" font-weight="700">Unknowns</text>
  <text x="832" y="402" fill="#475569" font-family="Inter, Arial, sans-serif" font-size="18">Duration · valuation</text>
  <text x="832" y="432" fill="#475569" font-family="Inter, Arial, sans-serif" font-size="18">macro reversal risk</text>

  <rect x="76" y="528" width="1048" height="148" rx="22" fill="#F8FAFC" stroke="#E2E8F0"/>
  <text x="104" y="568" fill="#0F172A" font-family="Inter, Arial, sans-serif" font-size="20" font-weight="700">Radar readout</text>
  <text x="104" y="606" fill="#475569" font-family="Inter, Arial, sans-serif" font-size="18">The long-form explanation stays available, but the first read is visual:</text>
  <text x="104" y="636" fill="#475569" font-family="Inter, Arial, sans-serif" font-size="18">signal → drivers → uncertainty.</text>
</svg>
